<?xml version="1.0" encoding="UTF-8"?>
<svg id="Layer_1" data-name="Layer 1" xmlns="http://www.w3.org/2000/svg" viewBox="0 0 448 384">
  <defs>
    <style>.cls-1 {
  fill: #dbd7bd;
}

</style>
  </defs>
  <path class="cls-1" d="M0,32C0,14.3,14.3,0,32,0H416c17.7,0,32,14.3,32,32s-14.3,32-32,32H32C14.3,64,0,49.7,0,32ZM0,192c0-17.7,14.3-32,32-32H416c17.7,0,32,14.3,32,32s-14.3,32-32,32H32c-17.7,0-32-14.3-32-32Zm448,160c0,17.7-14.3,32-32,32H32c-17.7,0-32-14.3-32-32s14.3-32,32-32H416c17.7,0,32,14.3,32,32Z"></path>
</svg>