<?xml version="1.0" encoding="UTF-8"?>
<svg id="Layer_1" data-name="Layer 1" xmlns="http://www.w3.org/2000/svg" xmlns:xlink="http://www.w3.org/1999/xlink" viewBox="0 0 102.38 103.51">
  <defs>
    <style>.cls-1 {
  fill: url("#linear-gradient");
}

.cls-2 {
  fill: url("#linear-gradient-2");
}

</style>
    <linearGradient id="linear-gradient" x1="589.08" y1="771.33" x2="689.49" y2="857.71" gradientTransform="translate(-334.16 -435.13) scale(.56)" gradientUnits="userSpaceOnUse">
      <stop offset="0" stop-color="#5a9fd4"></stop>
      <stop offset="1" stop-color="#306998"></stop>
    </linearGradient>
    <linearGradient id="linear-gradient-2" x1="728.25" y1="910" x2="692.4" y2="859.28" gradientTransform="translate(-334.16 -435.13) scale(.56)" gradientUnits="userSpaceOnUse">
      <stop offset="0" stop-color="#ffd43b"></stop>
      <stop offset="1" stop-color="#ffe873"></stop>
    </linearGradient>
  </defs>
  <path class="cls-1" d="M50.58,0c-4.22,.02-8.25,.38-11.8,1.01-10.45,1.85-12.35,5.71-12.35,12.84v9.41h24.69v3.14H17.16c-7.18,0-13.46,4.31-15.43,12.52-2.27,9.4-2.37,15.28,0,25.1,1.76,7.31,5.95,12.52,13.12,12.52h8.49v-11.28c0-8.15,7.05-15.34,15.43-15.34h24.67c6.87,0,12.35-5.65,12.35-12.55V13.85c0-6.69-5.65-11.72-12.35-12.84C59.2,.3,54.8-.02,50.58,0Zm-13.35,7.57c2.55,0,4.63,2.12,4.63,4.72s-2.08,4.69-4.63,4.69-4.63-2.1-4.63-4.69c0-2.6,2.07-4.72,4.63-4.72Z"></path>
  <path class="cls-2" d="M78.87,26.39v10.97c0,8.5-7.21,15.65-15.43,15.65h-24.66c-6.76,0-12.35,5.78-12.35,12.55v23.51c0,6.69,5.82,10.63,12.35,12.55,7.82,2.3,15.31,2.71,24.66,0,6.22-1.8,12.35-5.42,12.35-12.55v-9.41h-24.66v-3.14h37.01c7.18,0,9.85-5,12.35-12.52,2.58-7.74,2.47-15.17,0-25.1-1.77-7.15-5.16-12.52-12.35-12.52h-9.27Zm-13.87,59.55c2.56,0,4.63,2.1,4.63,4.69s-2.07,4.72-4.63,4.72-4.63-2.12-4.63-4.72,2.08-4.69,4.63-4.69Z"></path>
</svg>